<mxfile host="app.diagrams.net" modified="2024-05-30T09:13:28.825Z" agent="Mozilla/5.0 (Windows NT 10.0; Win64; x64) AppleWebKit/537.36 (KHTML, like Gecko) Chrome/125.0.0.0 Safari/537.36" etag="1VIyGIjqdvGh0C-6m2BH" version="24.4.10" type="device">
  <diagram name="Page-1" id="AFh0QDY7OUevubZ1lofg">
    <mxGraphModel dx="2049" dy="1114" grid="1" gridSize="10" guides="1" tooltips="1" connect="1" arrows="1" fold="1" page="1" pageScale="1" pageWidth="850" pageHeight="1100" math="0" shadow="0">
      <root>
        <mxCell id="0" />
        <mxCell id="1" parent="0" />
        <mxCell id="Z0cSFoAsNbvXdKRLB-xp-1" value="Windows OS lietotājs" style="shape=umlActor;verticalLabelPosition=bottom;verticalAlign=top;html=1;" vertex="1" parent="1">
          <mxGeometry x="33" y="240" width="55" height="101" as="geometry" />
        </mxCell>
        <mxCell id="Z0cSFoAsNbvXdKRLB-xp-67" style="edgeStyle=none;rounded=0;orthogonalLoop=1;jettySize=auto;html=1;exitX=0.274;exitY=0.043;exitDx=0;exitDy=0;entryX=0.5;entryY=1;entryDx=0;entryDy=0;strokeColor=default;align=center;verticalAlign=middle;fontFamily=Helvetica;fontSize=11;fontColor=default;labelBackgroundColor=default;endArrow=none;exitPerimeter=0;" edge="1" parent="1" source="Z0cSFoAsNbvXdKRLB-xp-3" target="Z0cSFoAsNbvXdKRLB-xp-66">
          <mxGeometry relative="1" as="geometry" />
        </mxCell>
        <mxCell id="Z0cSFoAsNbvXdKRLB-xp-131" value="" style="edgeStyle=none;rounded=0;orthogonalLoop=1;jettySize=auto;html=1;strokeColor=default;align=center;verticalAlign=middle;fontFamily=Helvetica;fontSize=11;fontColor=default;labelBackgroundColor=default;endArrow=none;" edge="1" parent="1" source="Z0cSFoAsNbvXdKRLB-xp-3">
          <mxGeometry relative="1" as="geometry">
            <mxPoint x="90" y="270" as="targetPoint" />
          </mxGeometry>
        </mxCell>
        <mxCell id="Z0cSFoAsNbvXdKRLB-xp-3" value="Startēt Python_test.exe" style="ellipse;whiteSpace=wrap;html=1;" vertex="1" parent="1">
          <mxGeometry x="128" y="220" width="110" height="60" as="geometry" />
        </mxCell>
        <mxCell id="Z0cSFoAsNbvXdKRLB-xp-66" value="Apturēt&lt;br&gt;&lt;div&gt;&lt;span style=&quot;background-color: rgb(251, 251, 251); font-size: 12px;&quot;&gt;Python_test&lt;/span&gt;.exe&lt;/div&gt;" style="ellipse;whiteSpace=wrap;html=1;fontFamily=Helvetica;fontSize=11;fontColor=default;labelBackgroundColor=default;" vertex="1" parent="1">
          <mxGeometry x="88" y="130" width="105" height="55" as="geometry" />
        </mxCell>
        <mxCell id="Z0cSFoAsNbvXdKRLB-xp-71" style="edgeStyle=none;rounded=0;orthogonalLoop=1;jettySize=auto;html=1;exitX=0.5;exitY=0;exitDx=0;exitDy=0;entryX=0.5;entryY=1;entryDx=0;entryDy=0;strokeColor=default;align=center;verticalAlign=middle;fontFamily=Helvetica;fontSize=11;fontColor=default;labelBackgroundColor=default;endArrow=none;" edge="1" parent="1" source="Z0cSFoAsNbvXdKRLB-xp-68" target="Z0cSFoAsNbvXdKRLB-xp-70">
          <mxGeometry relative="1" as="geometry" />
        </mxCell>
        <mxCell id="Z0cSFoAsNbvXdKRLB-xp-68" value="Sākt testēšanu" style="ellipse;whiteSpace=wrap;html=1;fontFamily=Helvetica;fontSize=11;fontColor=default;labelBackgroundColor=default;" vertex="1" parent="1">
          <mxGeometry x="310" y="225" width="100" height="50" as="geometry" />
        </mxCell>
        <mxCell id="Z0cSFoAsNbvXdKRLB-xp-78" style="edgeStyle=none;rounded=0;orthogonalLoop=1;jettySize=auto;html=1;exitX=0.5;exitY=0;exitDx=0;exitDy=0;entryX=0;entryY=1;entryDx=0;entryDy=0;strokeColor=default;align=center;verticalAlign=middle;fontFamily=Helvetica;fontSize=11;fontColor=default;labelBackgroundColor=default;endArrow=none;" edge="1" parent="1" source="Z0cSFoAsNbvXdKRLB-xp-70" target="Z0cSFoAsNbvXdKRLB-xp-77">
          <mxGeometry relative="1" as="geometry" />
        </mxCell>
        <mxCell id="Z0cSFoAsNbvXdKRLB-xp-90" style="edgeStyle=none;rounded=0;orthogonalLoop=1;jettySize=auto;html=1;entryX=0;entryY=0.5;entryDx=0;entryDy=0;strokeColor=default;align=center;verticalAlign=middle;fontFamily=Helvetica;fontSize=11;fontColor=default;labelBackgroundColor=default;endArrow=none;" edge="1" parent="1" source="Z0cSFoAsNbvXdKRLB-xp-70" target="Z0cSFoAsNbvXdKRLB-xp-82">
          <mxGeometry relative="1" as="geometry" />
        </mxCell>
        <mxCell id="Z0cSFoAsNbvXdKRLB-xp-70" value="1. jautajums" style="ellipse;whiteSpace=wrap;html=1;fontFamily=Helvetica;fontSize=11;fontColor=default;labelBackgroundColor=default;" vertex="1" parent="1">
          <mxGeometry x="310" y="135" width="90" height="50" as="geometry" />
        </mxCell>
        <mxCell id="Z0cSFoAsNbvXdKRLB-xp-72" value="1. atb" style="ellipse;whiteSpace=wrap;html=1;fontFamily=Helvetica;fontSize=11;fontColor=default;labelBackgroundColor=default;" vertex="1" parent="1">
          <mxGeometry x="300" y="50" width="60" height="30" as="geometry" />
        </mxCell>
        <mxCell id="Z0cSFoAsNbvXdKRLB-xp-74" style="edgeStyle=none;rounded=0;orthogonalLoop=1;jettySize=auto;html=1;exitX=0.5;exitY=1;exitDx=0;exitDy=0;strokeColor=default;align=center;verticalAlign=middle;fontFamily=Helvetica;fontSize=11;fontColor=default;labelBackgroundColor=default;endArrow=none;" edge="1" parent="1" source="Z0cSFoAsNbvXdKRLB-xp-73" target="Z0cSFoAsNbvXdKRLB-xp-70">
          <mxGeometry relative="1" as="geometry" />
        </mxCell>
        <mxCell id="Z0cSFoAsNbvXdKRLB-xp-73" value="1. atb" style="ellipse;whiteSpace=wrap;html=1;fontFamily=Helvetica;fontSize=11;fontColor=default;labelBackgroundColor=default;" vertex="1" parent="1">
          <mxGeometry x="220" y="80" width="60" height="35" as="geometry" />
        </mxCell>
        <mxCell id="Z0cSFoAsNbvXdKRLB-xp-75" style="edgeStyle=none;rounded=0;orthogonalLoop=1;jettySize=auto;html=1;entryX=0.333;entryY=0.1;entryDx=0;entryDy=0;entryPerimeter=0;strokeColor=default;align=center;verticalAlign=middle;fontFamily=Helvetica;fontSize=11;fontColor=default;labelBackgroundColor=default;endArrow=none;" edge="1" parent="1" source="Z0cSFoAsNbvXdKRLB-xp-72" target="Z0cSFoAsNbvXdKRLB-xp-70">
          <mxGeometry relative="1" as="geometry" />
        </mxCell>
        <mxCell id="Z0cSFoAsNbvXdKRLB-xp-77" value="1. atb" style="ellipse;whiteSpace=wrap;html=1;fontFamily=Helvetica;fontSize=11;fontColor=default;labelBackgroundColor=default;" vertex="1" parent="1">
          <mxGeometry x="370" y="60" width="60" height="35" as="geometry" />
        </mxCell>
        <mxCell id="Z0cSFoAsNbvXdKRLB-xp-123" value="" style="edgeStyle=none;rounded=0;orthogonalLoop=1;jettySize=auto;html=1;strokeColor=default;align=center;verticalAlign=middle;fontFamily=Helvetica;fontSize=11;fontColor=default;labelBackgroundColor=default;endArrow=none;" edge="1" parent="1" source="Z0cSFoAsNbvXdKRLB-xp-79" target="Z0cSFoAsNbvXdKRLB-xp-70">
          <mxGeometry relative="1" as="geometry" />
        </mxCell>
        <mxCell id="Z0cSFoAsNbvXdKRLB-xp-79" value="1. atb" style="ellipse;whiteSpace=wrap;html=1;fontFamily=Helvetica;fontSize=11;fontColor=default;labelBackgroundColor=default;" vertex="1" parent="1">
          <mxGeometry x="220" y="157.5" width="60" height="35" as="geometry" />
        </mxCell>
        <mxCell id="Z0cSFoAsNbvXdKRLB-xp-81" style="edgeStyle=none;rounded=0;orthogonalLoop=1;jettySize=auto;html=1;exitX=0.5;exitY=0;exitDx=0;exitDy=0;entryX=0;entryY=1;entryDx=0;entryDy=0;strokeColor=default;align=center;verticalAlign=middle;fontFamily=Helvetica;fontSize=11;fontColor=default;labelBackgroundColor=default;endArrow=none;" edge="1" parent="1" source="Z0cSFoAsNbvXdKRLB-xp-82" target="Z0cSFoAsNbvXdKRLB-xp-87">
          <mxGeometry relative="1" as="geometry" />
        </mxCell>
        <mxCell id="Z0cSFoAsNbvXdKRLB-xp-101" style="edgeStyle=none;rounded=0;orthogonalLoop=1;jettySize=auto;html=1;exitX=1;exitY=0.5;exitDx=0;exitDy=0;entryX=0;entryY=0.5;entryDx=0;entryDy=0;strokeColor=default;align=center;verticalAlign=middle;fontFamily=Helvetica;fontSize=11;fontColor=default;labelBackgroundColor=default;endArrow=none;" edge="1" parent="1" source="Z0cSFoAsNbvXdKRLB-xp-82" target="Z0cSFoAsNbvXdKRLB-xp-92">
          <mxGeometry relative="1" as="geometry" />
        </mxCell>
        <mxCell id="Z0cSFoAsNbvXdKRLB-xp-82" value="2. jautajums" style="ellipse;whiteSpace=wrap;html=1;fontFamily=Helvetica;fontSize=11;fontColor=default;labelBackgroundColor=default;" vertex="1" parent="1">
          <mxGeometry x="490" y="150" width="90" height="50" as="geometry" />
        </mxCell>
        <mxCell id="Z0cSFoAsNbvXdKRLB-xp-83" value="1. atb" style="ellipse;whiteSpace=wrap;html=1;fontFamily=Helvetica;fontSize=11;fontColor=default;labelBackgroundColor=default;" vertex="1" parent="1">
          <mxGeometry x="480" y="65" width="60" height="30" as="geometry" />
        </mxCell>
        <mxCell id="Z0cSFoAsNbvXdKRLB-xp-84" style="edgeStyle=none;rounded=0;orthogonalLoop=1;jettySize=auto;html=1;exitX=0.5;exitY=1;exitDx=0;exitDy=0;strokeColor=default;align=center;verticalAlign=middle;fontFamily=Helvetica;fontSize=11;fontColor=default;labelBackgroundColor=default;endArrow=none;" edge="1" parent="1" source="Z0cSFoAsNbvXdKRLB-xp-85" target="Z0cSFoAsNbvXdKRLB-xp-82">
          <mxGeometry relative="1" as="geometry" />
        </mxCell>
        <mxCell id="Z0cSFoAsNbvXdKRLB-xp-85" value="1. atb" style="ellipse;whiteSpace=wrap;html=1;fontFamily=Helvetica;fontSize=11;fontColor=default;labelBackgroundColor=default;" vertex="1" parent="1">
          <mxGeometry x="430" y="110" width="60" height="35" as="geometry" />
        </mxCell>
        <mxCell id="Z0cSFoAsNbvXdKRLB-xp-86" style="edgeStyle=none;rounded=0;orthogonalLoop=1;jettySize=auto;html=1;entryX=0.333;entryY=0.1;entryDx=0;entryDy=0;entryPerimeter=0;strokeColor=default;align=center;verticalAlign=middle;fontFamily=Helvetica;fontSize=11;fontColor=default;labelBackgroundColor=default;endArrow=none;" edge="1" parent="1" source="Z0cSFoAsNbvXdKRLB-xp-83" target="Z0cSFoAsNbvXdKRLB-xp-82">
          <mxGeometry relative="1" as="geometry" />
        </mxCell>
        <mxCell id="Z0cSFoAsNbvXdKRLB-xp-87" value="1. atb" style="ellipse;whiteSpace=wrap;html=1;fontFamily=Helvetica;fontSize=11;fontColor=default;labelBackgroundColor=default;" vertex="1" parent="1">
          <mxGeometry x="550" y="75" width="60" height="35" as="geometry" />
        </mxCell>
        <mxCell id="Z0cSFoAsNbvXdKRLB-xp-88" value="1. atb" style="ellipse;whiteSpace=wrap;html=1;fontFamily=Helvetica;fontSize=11;fontColor=default;labelBackgroundColor=default;" vertex="1" parent="1">
          <mxGeometry x="425" y="185" width="60" height="35" as="geometry" />
        </mxCell>
        <mxCell id="Z0cSFoAsNbvXdKRLB-xp-89" style="edgeStyle=none;rounded=0;orthogonalLoop=1;jettySize=auto;html=1;exitX=1;exitY=0;exitDx=0;exitDy=0;entryX=0.002;entryY=0.631;entryDx=0;entryDy=0;entryPerimeter=0;strokeColor=default;align=center;verticalAlign=middle;fontFamily=Helvetica;fontSize=11;fontColor=default;labelBackgroundColor=default;endArrow=none;" edge="1" parent="1" source="Z0cSFoAsNbvXdKRLB-xp-88" target="Z0cSFoAsNbvXdKRLB-xp-82">
          <mxGeometry relative="1" as="geometry" />
        </mxCell>
        <mxCell id="Z0cSFoAsNbvXdKRLB-xp-91" style="edgeStyle=none;rounded=0;orthogonalLoop=1;jettySize=auto;html=1;exitX=0.5;exitY=0;exitDx=0;exitDy=0;entryX=0;entryY=1;entryDx=0;entryDy=0;strokeColor=default;align=center;verticalAlign=middle;fontFamily=Helvetica;fontSize=11;fontColor=default;labelBackgroundColor=default;endArrow=none;" edge="1" parent="1" source="Z0cSFoAsNbvXdKRLB-xp-92" target="Z0cSFoAsNbvXdKRLB-xp-97">
          <mxGeometry relative="1" as="geometry" />
        </mxCell>
        <mxCell id="Z0cSFoAsNbvXdKRLB-xp-111" style="edgeStyle=none;rounded=0;orthogonalLoop=1;jettySize=auto;html=1;strokeColor=default;align=center;verticalAlign=middle;fontFamily=Helvetica;fontSize=11;fontColor=default;labelBackgroundColor=default;endArrow=none;" edge="1" parent="1" source="Z0cSFoAsNbvXdKRLB-xp-92" target="Z0cSFoAsNbvXdKRLB-xp-103">
          <mxGeometry relative="1" as="geometry" />
        </mxCell>
        <mxCell id="Z0cSFoAsNbvXdKRLB-xp-92" value="3. jautajums" style="ellipse;whiteSpace=wrap;html=1;fontFamily=Helvetica;fontSize=11;fontColor=default;labelBackgroundColor=default;" vertex="1" parent="1">
          <mxGeometry x="675" y="150" width="90" height="50" as="geometry" />
        </mxCell>
        <mxCell id="Z0cSFoAsNbvXdKRLB-xp-93" value="1. atb" style="ellipse;whiteSpace=wrap;html=1;fontFamily=Helvetica;fontSize=11;fontColor=default;labelBackgroundColor=default;" vertex="1" parent="1">
          <mxGeometry x="665" y="70" width="60" height="30" as="geometry" />
        </mxCell>
        <mxCell id="Z0cSFoAsNbvXdKRLB-xp-94" style="edgeStyle=none;rounded=0;orthogonalLoop=1;jettySize=auto;html=1;exitX=0.5;exitY=1;exitDx=0;exitDy=0;strokeColor=default;align=center;verticalAlign=middle;fontFamily=Helvetica;fontSize=11;fontColor=default;labelBackgroundColor=default;endArrow=none;" edge="1" parent="1" source="Z0cSFoAsNbvXdKRLB-xp-95" target="Z0cSFoAsNbvXdKRLB-xp-92">
          <mxGeometry relative="1" as="geometry" />
        </mxCell>
        <mxCell id="Z0cSFoAsNbvXdKRLB-xp-95" value="1. atb" style="ellipse;whiteSpace=wrap;html=1;fontFamily=Helvetica;fontSize=11;fontColor=default;labelBackgroundColor=default;" vertex="1" parent="1">
          <mxGeometry x="615" y="115" width="60" height="35" as="geometry" />
        </mxCell>
        <mxCell id="Z0cSFoAsNbvXdKRLB-xp-96" style="edgeStyle=none;rounded=0;orthogonalLoop=1;jettySize=auto;html=1;entryX=0.333;entryY=0.1;entryDx=0;entryDy=0;entryPerimeter=0;strokeColor=default;align=center;verticalAlign=middle;fontFamily=Helvetica;fontSize=11;fontColor=default;labelBackgroundColor=default;endArrow=none;" edge="1" parent="1" source="Z0cSFoAsNbvXdKRLB-xp-93" target="Z0cSFoAsNbvXdKRLB-xp-92">
          <mxGeometry relative="1" as="geometry" />
        </mxCell>
        <mxCell id="Z0cSFoAsNbvXdKRLB-xp-97" value="1. atb" style="ellipse;whiteSpace=wrap;html=1;fontFamily=Helvetica;fontSize=11;fontColor=default;labelBackgroundColor=default;" vertex="1" parent="1">
          <mxGeometry x="735" y="80" width="60" height="35" as="geometry" />
        </mxCell>
        <mxCell id="Z0cSFoAsNbvXdKRLB-xp-98" value="1. atb" style="ellipse;whiteSpace=wrap;html=1;fontFamily=Helvetica;fontSize=11;fontColor=default;labelBackgroundColor=default;" vertex="1" parent="1">
          <mxGeometry x="610" y="190" width="60" height="35" as="geometry" />
        </mxCell>
        <mxCell id="Z0cSFoAsNbvXdKRLB-xp-99" style="edgeStyle=none;rounded=0;orthogonalLoop=1;jettySize=auto;html=1;exitX=1;exitY=0;exitDx=0;exitDy=0;entryX=0.002;entryY=0.631;entryDx=0;entryDy=0;entryPerimeter=0;strokeColor=default;align=center;verticalAlign=middle;fontFamily=Helvetica;fontSize=11;fontColor=default;labelBackgroundColor=default;endArrow=none;" edge="1" parent="1" source="Z0cSFoAsNbvXdKRLB-xp-98" target="Z0cSFoAsNbvXdKRLB-xp-92">
          <mxGeometry relative="1" as="geometry" />
        </mxCell>
        <mxCell id="Z0cSFoAsNbvXdKRLB-xp-102" style="edgeStyle=none;rounded=0;orthogonalLoop=1;jettySize=auto;html=1;exitX=0.787;exitY=0.017;exitDx=0;exitDy=0;entryX=0.361;entryY=0.976;entryDx=0;entryDy=0;strokeColor=default;align=center;verticalAlign=middle;fontFamily=Helvetica;fontSize=11;fontColor=default;labelBackgroundColor=default;endArrow=none;exitPerimeter=0;entryPerimeter=0;" edge="1" parent="1" target="Z0cSFoAsNbvXdKRLB-xp-108">
          <mxGeometry relative="1" as="geometry">
            <mxPoint x="745.8300000000002" y="320.98" as="sourcePoint" />
            <mxPoint x="743.7867965644034" y="275.0043686707646" as="targetPoint" />
          </mxGeometry>
        </mxCell>
        <mxCell id="Z0cSFoAsNbvXdKRLB-xp-112" style="edgeStyle=none;rounded=0;orthogonalLoop=1;jettySize=auto;html=1;exitX=1;exitY=1;exitDx=0;exitDy=0;entryX=0;entryY=0.5;entryDx=0;entryDy=0;strokeColor=default;align=center;verticalAlign=middle;fontFamily=Helvetica;fontSize=11;fontColor=default;labelBackgroundColor=default;endArrow=none;" edge="1" parent="1" source="Z0cSFoAsNbvXdKRLB-xp-103" target="Z0cSFoAsNbvXdKRLB-xp-109">
          <mxGeometry relative="1" as="geometry" />
        </mxCell>
        <mxCell id="Z0cSFoAsNbvXdKRLB-xp-122" style="edgeStyle=none;rounded=0;orthogonalLoop=1;jettySize=auto;html=1;exitX=0;exitY=0.5;exitDx=0;exitDy=0;entryX=1;entryY=0.5;entryDx=0;entryDy=0;strokeColor=default;align=center;verticalAlign=middle;fontFamily=Helvetica;fontSize=11;fontColor=default;labelBackgroundColor=default;endArrow=none;" edge="1" parent="1" source="Z0cSFoAsNbvXdKRLB-xp-103" target="Z0cSFoAsNbvXdKRLB-xp-114">
          <mxGeometry relative="1" as="geometry" />
        </mxCell>
        <mxCell id="Z0cSFoAsNbvXdKRLB-xp-103" value="4. jautajums" style="ellipse;whiteSpace=wrap;html=1;fontFamily=Helvetica;fontSize=11;fontColor=default;labelBackgroundColor=default;" vertex="1" parent="1">
          <mxGeometry x="675" y="315" width="90" height="50" as="geometry" />
        </mxCell>
        <mxCell id="Z0cSFoAsNbvXdKRLB-xp-104" value="1. atb" style="ellipse;whiteSpace=wrap;html=1;fontFamily=Helvetica;fontSize=11;fontColor=default;labelBackgroundColor=default;" vertex="1" parent="1">
          <mxGeometry x="650" y="235" width="60" height="30" as="geometry" />
        </mxCell>
        <mxCell id="Z0cSFoAsNbvXdKRLB-xp-105" style="edgeStyle=none;rounded=0;orthogonalLoop=1;jettySize=auto;html=1;exitX=0.5;exitY=1;exitDx=0;exitDy=0;strokeColor=default;align=center;verticalAlign=middle;fontFamily=Helvetica;fontSize=11;fontColor=default;labelBackgroundColor=default;endArrow=none;" edge="1" parent="1" source="Z0cSFoAsNbvXdKRLB-xp-106" target="Z0cSFoAsNbvXdKRLB-xp-103">
          <mxGeometry relative="1" as="geometry" />
        </mxCell>
        <mxCell id="Z0cSFoAsNbvXdKRLB-xp-106" value="1. atb" style="ellipse;whiteSpace=wrap;html=1;fontFamily=Helvetica;fontSize=11;fontColor=default;labelBackgroundColor=default;" vertex="1" parent="1">
          <mxGeometry x="780" y="290" width="60" height="35" as="geometry" />
        </mxCell>
        <mxCell id="Z0cSFoAsNbvXdKRLB-xp-107" style="edgeStyle=none;rounded=0;orthogonalLoop=1;jettySize=auto;html=1;entryX=0.333;entryY=0.1;entryDx=0;entryDy=0;entryPerimeter=0;strokeColor=default;align=center;verticalAlign=middle;fontFamily=Helvetica;fontSize=11;fontColor=default;labelBackgroundColor=default;endArrow=none;" edge="1" parent="1" source="Z0cSFoAsNbvXdKRLB-xp-104" target="Z0cSFoAsNbvXdKRLB-xp-103">
          <mxGeometry relative="1" as="geometry" />
        </mxCell>
        <mxCell id="Z0cSFoAsNbvXdKRLB-xp-108" value="1. atb" style="ellipse;whiteSpace=wrap;html=1;fontFamily=Helvetica;fontSize=11;fontColor=default;labelBackgroundColor=default;" vertex="1" parent="1">
          <mxGeometry x="735" y="240" width="60" height="35" as="geometry" />
        </mxCell>
        <mxCell id="Z0cSFoAsNbvXdKRLB-xp-109" value="1. atb" style="ellipse;whiteSpace=wrap;html=1;fontFamily=Helvetica;fontSize=11;fontColor=default;labelBackgroundColor=default;" vertex="1" parent="1">
          <mxGeometry x="770" y="350" width="60" height="35" as="geometry" />
        </mxCell>
        <mxCell id="Z0cSFoAsNbvXdKRLB-xp-113" style="edgeStyle=none;rounded=0;orthogonalLoop=1;jettySize=auto;html=1;exitX=0.5;exitY=0;exitDx=0;exitDy=0;entryX=0;entryY=1;entryDx=0;entryDy=0;strokeColor=default;align=center;verticalAlign=middle;fontFamily=Helvetica;fontSize=11;fontColor=default;labelBackgroundColor=default;endArrow=none;" edge="1" parent="1" source="Z0cSFoAsNbvXdKRLB-xp-114" target="Z0cSFoAsNbvXdKRLB-xp-119">
          <mxGeometry relative="1" as="geometry" />
        </mxCell>
        <mxCell id="Z0cSFoAsNbvXdKRLB-xp-114" value="5. jautajums" style="ellipse;whiteSpace=wrap;html=1;fontFamily=Helvetica;fontSize=11;fontColor=default;labelBackgroundColor=default;" vertex="1" parent="1">
          <mxGeometry x="490" y="310" width="90" height="50" as="geometry" />
        </mxCell>
        <mxCell id="Z0cSFoAsNbvXdKRLB-xp-115" value="5. atb" style="ellipse;whiteSpace=wrap;html=1;fontFamily=Helvetica;fontSize=11;fontColor=default;labelBackgroundColor=default;" vertex="1" parent="1">
          <mxGeometry x="480" y="225" width="60" height="30" as="geometry" />
        </mxCell>
        <mxCell id="Z0cSFoAsNbvXdKRLB-xp-116" style="edgeStyle=none;rounded=0;orthogonalLoop=1;jettySize=auto;html=1;exitX=0.5;exitY=1;exitDx=0;exitDy=0;strokeColor=default;align=center;verticalAlign=middle;fontFamily=Helvetica;fontSize=11;fontColor=default;labelBackgroundColor=default;endArrow=none;" edge="1" parent="1" source="Z0cSFoAsNbvXdKRLB-xp-117" target="Z0cSFoAsNbvXdKRLB-xp-114">
          <mxGeometry relative="1" as="geometry" />
        </mxCell>
        <mxCell id="Z0cSFoAsNbvXdKRLB-xp-117" value="5. atb" style="ellipse;whiteSpace=wrap;html=1;fontFamily=Helvetica;fontSize=11;fontColor=default;labelBackgroundColor=default;" vertex="1" parent="1">
          <mxGeometry x="430" y="270" width="60" height="35" as="geometry" />
        </mxCell>
        <mxCell id="Z0cSFoAsNbvXdKRLB-xp-118" style="edgeStyle=none;rounded=0;orthogonalLoop=1;jettySize=auto;html=1;entryX=0.333;entryY=0.1;entryDx=0;entryDy=0;entryPerimeter=0;strokeColor=default;align=center;verticalAlign=middle;fontFamily=Helvetica;fontSize=11;fontColor=default;labelBackgroundColor=default;endArrow=none;" edge="1" parent="1" source="Z0cSFoAsNbvXdKRLB-xp-115" target="Z0cSFoAsNbvXdKRLB-xp-114">
          <mxGeometry relative="1" as="geometry" />
        </mxCell>
        <mxCell id="Z0cSFoAsNbvXdKRLB-xp-119" value="5. atb" style="ellipse;whiteSpace=wrap;html=1;fontFamily=Helvetica;fontSize=11;fontColor=default;labelBackgroundColor=default;" vertex="1" parent="1">
          <mxGeometry x="550" y="235" width="60" height="35" as="geometry" />
        </mxCell>
        <mxCell id="Z0cSFoAsNbvXdKRLB-xp-142" style="edgeStyle=none;rounded=0;orthogonalLoop=1;jettySize=auto;html=1;entryX=1;entryY=0;entryDx=0;entryDy=0;strokeColor=default;align=center;verticalAlign=middle;fontFamily=Helvetica;fontSize=11;fontColor=default;labelBackgroundColor=default;endArrow=none;" edge="1" parent="1" source="Z0cSFoAsNbvXdKRLB-xp-120" target="Z0cSFoAsNbvXdKRLB-xp-114">
          <mxGeometry relative="1" as="geometry" />
        </mxCell>
        <mxCell id="Z0cSFoAsNbvXdKRLB-xp-120" value="5. atb" style="ellipse;whiteSpace=wrap;html=1;fontFamily=Helvetica;fontSize=11;fontColor=default;labelBackgroundColor=default;" vertex="1" parent="1">
          <mxGeometry x="590" y="270" width="60" height="35" as="geometry" />
        </mxCell>
        <mxCell id="Z0cSFoAsNbvXdKRLB-xp-129" style="edgeStyle=none;rounded=0;orthogonalLoop=1;jettySize=auto;html=1;exitX=1;exitY=0;exitDx=0;exitDy=0;entryX=0;entryY=1;entryDx=0;entryDy=0;strokeColor=default;align=center;verticalAlign=middle;fontFamily=Helvetica;fontSize=11;fontColor=default;labelBackgroundColor=default;endArrow=none;" edge="1" parent="1" source="Z0cSFoAsNbvXdKRLB-xp-124" target="Z0cSFoAsNbvXdKRLB-xp-68">
          <mxGeometry relative="1" as="geometry" />
        </mxCell>
        <mxCell id="Z0cSFoAsNbvXdKRLB-xp-124" value="Ievadīt vārdu" style="ellipse;whiteSpace=wrap;html=1;fontFamily=Helvetica;fontSize=11;fontColor=default;labelBackgroundColor=default;" vertex="1" parent="1">
          <mxGeometry x="230" y="280" width="100" height="50" as="geometry" />
        </mxCell>
        <mxCell id="Z0cSFoAsNbvXdKRLB-xp-130" style="edgeStyle=none;rounded=0;orthogonalLoop=1;jettySize=auto;html=1;exitX=1;exitY=1;exitDx=0;exitDy=0;entryX=0.1;entryY=0.2;entryDx=0;entryDy=0;entryPerimeter=0;strokeColor=default;align=center;verticalAlign=middle;fontFamily=Helvetica;fontSize=11;fontColor=default;labelBackgroundColor=default;endArrow=none;" edge="1" parent="1" source="Z0cSFoAsNbvXdKRLB-xp-3" target="Z0cSFoAsNbvXdKRLB-xp-124">
          <mxGeometry relative="1" as="geometry" />
        </mxCell>
        <mxCell id="Z0cSFoAsNbvXdKRLB-xp-132" style="edgeStyle=none;rounded=0;orthogonalLoop=1;jettySize=auto;html=1;exitX=0.5;exitY=0;exitDx=0;exitDy=0;entryX=0;entryY=1;entryDx=0;entryDy=0;strokeColor=default;align=center;verticalAlign=middle;fontFamily=Helvetica;fontSize=11;fontColor=default;labelBackgroundColor=default;endArrow=none;" edge="1" parent="1" source="Z0cSFoAsNbvXdKRLB-xp-133" target="Z0cSFoAsNbvXdKRLB-xp-138">
          <mxGeometry relative="1" as="geometry" />
        </mxCell>
        <mxCell id="Z0cSFoAsNbvXdKRLB-xp-153" style="edgeStyle=none;rounded=0;orthogonalLoop=1;jettySize=auto;html=1;exitX=0.5;exitY=1;exitDx=0;exitDy=0;entryX=0;entryY=0.5;entryDx=0;entryDy=0;strokeColor=default;align=center;verticalAlign=middle;fontFamily=Helvetica;fontSize=11;fontColor=default;labelBackgroundColor=default;endArrow=none;" edge="1" parent="1" source="Z0cSFoAsNbvXdKRLB-xp-133" target="Z0cSFoAsNbvXdKRLB-xp-145">
          <mxGeometry relative="1" as="geometry" />
        </mxCell>
        <mxCell id="Z0cSFoAsNbvXdKRLB-xp-133" value="6. jautajums" style="ellipse;whiteSpace=wrap;html=1;fontFamily=Helvetica;fontSize=11;fontColor=default;labelBackgroundColor=default;" vertex="1" parent="1">
          <mxGeometry x="355" y="395" width="90" height="50" as="geometry" />
        </mxCell>
        <mxCell id="Z0cSFoAsNbvXdKRLB-xp-134" value="5. atb" style="ellipse;whiteSpace=wrap;html=1;fontFamily=Helvetica;fontSize=11;fontColor=default;labelBackgroundColor=default;" vertex="1" parent="1">
          <mxGeometry x="335" y="325" width="60" height="30" as="geometry" />
        </mxCell>
        <mxCell id="Z0cSFoAsNbvXdKRLB-xp-135" style="edgeStyle=none;rounded=0;orthogonalLoop=1;jettySize=auto;html=1;exitX=0.5;exitY=1;exitDx=0;exitDy=0;strokeColor=default;align=center;verticalAlign=middle;fontFamily=Helvetica;fontSize=11;fontColor=default;labelBackgroundColor=default;endArrow=none;" edge="1" parent="1" source="Z0cSFoAsNbvXdKRLB-xp-136" target="Z0cSFoAsNbvXdKRLB-xp-133">
          <mxGeometry relative="1" as="geometry" />
        </mxCell>
        <mxCell id="Z0cSFoAsNbvXdKRLB-xp-136" value="5. atb" style="ellipse;whiteSpace=wrap;html=1;fontFamily=Helvetica;fontSize=11;fontColor=default;labelBackgroundColor=default;" vertex="1" parent="1">
          <mxGeometry x="285" y="370" width="60" height="35" as="geometry" />
        </mxCell>
        <mxCell id="Z0cSFoAsNbvXdKRLB-xp-137" style="edgeStyle=none;rounded=0;orthogonalLoop=1;jettySize=auto;html=1;entryX=0.333;entryY=0.1;entryDx=0;entryDy=0;entryPerimeter=0;strokeColor=default;align=center;verticalAlign=middle;fontFamily=Helvetica;fontSize=11;fontColor=default;labelBackgroundColor=default;endArrow=none;" edge="1" parent="1" source="Z0cSFoAsNbvXdKRLB-xp-134" target="Z0cSFoAsNbvXdKRLB-xp-133">
          <mxGeometry relative="1" as="geometry" />
        </mxCell>
        <mxCell id="Z0cSFoAsNbvXdKRLB-xp-138" value="5. atb" style="ellipse;whiteSpace=wrap;html=1;fontFamily=Helvetica;fontSize=11;fontColor=default;labelBackgroundColor=default;" vertex="1" parent="1">
          <mxGeometry x="405" y="335" width="60" height="35" as="geometry" />
        </mxCell>
        <mxCell id="Z0cSFoAsNbvXdKRLB-xp-139" value="5. atb" style="ellipse;whiteSpace=wrap;html=1;fontFamily=Helvetica;fontSize=11;fontColor=default;labelBackgroundColor=default;" vertex="1" parent="1">
          <mxGeometry x="280" y="445" width="60" height="35" as="geometry" />
        </mxCell>
        <mxCell id="Z0cSFoAsNbvXdKRLB-xp-140" style="edgeStyle=none;rounded=0;orthogonalLoop=1;jettySize=auto;html=1;exitX=1;exitY=0;exitDx=0;exitDy=0;entryX=0.002;entryY=0.631;entryDx=0;entryDy=0;entryPerimeter=0;strokeColor=default;align=center;verticalAlign=middle;fontFamily=Helvetica;fontSize=11;fontColor=default;labelBackgroundColor=default;endArrow=none;" edge="1" parent="1" source="Z0cSFoAsNbvXdKRLB-xp-139" target="Z0cSFoAsNbvXdKRLB-xp-133">
          <mxGeometry relative="1" as="geometry" />
        </mxCell>
        <mxCell id="Z0cSFoAsNbvXdKRLB-xp-143" style="edgeStyle=none;rounded=0;orthogonalLoop=1;jettySize=auto;html=1;exitX=0;exitY=1;exitDx=0;exitDy=0;entryX=0.954;entryY=0.317;entryDx=0;entryDy=0;entryPerimeter=0;strokeColor=default;align=center;verticalAlign=middle;fontFamily=Helvetica;fontSize=11;fontColor=default;labelBackgroundColor=default;endArrow=none;" edge="1" parent="1" source="Z0cSFoAsNbvXdKRLB-xp-114" target="Z0cSFoAsNbvXdKRLB-xp-133">
          <mxGeometry relative="1" as="geometry" />
        </mxCell>
        <mxCell id="Z0cSFoAsNbvXdKRLB-xp-144" style="edgeStyle=none;rounded=0;orthogonalLoop=1;jettySize=auto;html=1;exitX=0.5;exitY=0;exitDx=0;exitDy=0;entryX=0;entryY=1;entryDx=0;entryDy=0;strokeColor=default;align=center;verticalAlign=middle;fontFamily=Helvetica;fontSize=11;fontColor=default;labelBackgroundColor=default;endArrow=none;" edge="1" parent="1" source="Z0cSFoAsNbvXdKRLB-xp-145" target="Z0cSFoAsNbvXdKRLB-xp-150">
          <mxGeometry relative="1" as="geometry" />
        </mxCell>
        <mxCell id="Z0cSFoAsNbvXdKRLB-xp-163" style="edgeStyle=none;rounded=0;orthogonalLoop=1;jettySize=auto;html=1;exitX=1;exitY=1;exitDx=0;exitDy=0;entryX=0;entryY=0.5;entryDx=0;entryDy=0;strokeColor=default;align=center;verticalAlign=middle;fontFamily=Helvetica;fontSize=11;fontColor=default;labelBackgroundColor=default;endArrow=none;" edge="1" parent="1" source="Z0cSFoAsNbvXdKRLB-xp-145" target="Z0cSFoAsNbvXdKRLB-xp-155">
          <mxGeometry relative="1" as="geometry" />
        </mxCell>
        <mxCell id="Z0cSFoAsNbvXdKRLB-xp-145" value="7. jautajums" style="ellipse;whiteSpace=wrap;html=1;fontFamily=Helvetica;fontSize=11;fontColor=default;labelBackgroundColor=default;" vertex="1" parent="1">
          <mxGeometry x="525" y="455" width="90" height="50" as="geometry" />
        </mxCell>
        <mxCell id="Z0cSFoAsNbvXdKRLB-xp-146" value="5. atb" style="ellipse;whiteSpace=wrap;html=1;fontFamily=Helvetica;fontSize=11;fontColor=default;labelBackgroundColor=default;" vertex="1" parent="1">
          <mxGeometry x="515" y="370" width="60" height="30" as="geometry" />
        </mxCell>
        <mxCell id="Z0cSFoAsNbvXdKRLB-xp-147" style="edgeStyle=none;rounded=0;orthogonalLoop=1;jettySize=auto;html=1;exitX=0.5;exitY=1;exitDx=0;exitDy=0;strokeColor=default;align=center;verticalAlign=middle;fontFamily=Helvetica;fontSize=11;fontColor=default;labelBackgroundColor=default;endArrow=none;" edge="1" parent="1" source="Z0cSFoAsNbvXdKRLB-xp-148" target="Z0cSFoAsNbvXdKRLB-xp-145">
          <mxGeometry relative="1" as="geometry" />
        </mxCell>
        <mxCell id="Z0cSFoAsNbvXdKRLB-xp-148" value="5. atb" style="ellipse;whiteSpace=wrap;html=1;fontFamily=Helvetica;fontSize=11;fontColor=default;labelBackgroundColor=default;" vertex="1" parent="1">
          <mxGeometry x="465" y="415" width="60" height="35" as="geometry" />
        </mxCell>
        <mxCell id="Z0cSFoAsNbvXdKRLB-xp-149" style="edgeStyle=none;rounded=0;orthogonalLoop=1;jettySize=auto;html=1;entryX=0.333;entryY=0.1;entryDx=0;entryDy=0;entryPerimeter=0;strokeColor=default;align=center;verticalAlign=middle;fontFamily=Helvetica;fontSize=11;fontColor=default;labelBackgroundColor=default;endArrow=none;" edge="1" parent="1" source="Z0cSFoAsNbvXdKRLB-xp-146" target="Z0cSFoAsNbvXdKRLB-xp-145">
          <mxGeometry relative="1" as="geometry" />
        </mxCell>
        <mxCell id="Z0cSFoAsNbvXdKRLB-xp-150" value="5. atb" style="ellipse;whiteSpace=wrap;html=1;fontFamily=Helvetica;fontSize=11;fontColor=default;labelBackgroundColor=default;" vertex="1" parent="1">
          <mxGeometry x="585" y="380" width="60" height="35" as="geometry" />
        </mxCell>
        <mxCell id="Z0cSFoAsNbvXdKRLB-xp-151" value="5. atb" style="ellipse;whiteSpace=wrap;html=1;fontFamily=Helvetica;fontSize=11;fontColor=default;labelBackgroundColor=default;" vertex="1" parent="1">
          <mxGeometry x="460" y="490" width="60" height="35" as="geometry" />
        </mxCell>
        <mxCell id="Z0cSFoAsNbvXdKRLB-xp-152" style="edgeStyle=none;rounded=0;orthogonalLoop=1;jettySize=auto;html=1;exitX=1;exitY=0;exitDx=0;exitDy=0;entryX=0.002;entryY=0.631;entryDx=0;entryDy=0;entryPerimeter=0;strokeColor=default;align=center;verticalAlign=middle;fontFamily=Helvetica;fontSize=11;fontColor=default;labelBackgroundColor=default;endArrow=none;" edge="1" parent="1" source="Z0cSFoAsNbvXdKRLB-xp-151" target="Z0cSFoAsNbvXdKRLB-xp-145">
          <mxGeometry relative="1" as="geometry" />
        </mxCell>
        <mxCell id="Z0cSFoAsNbvXdKRLB-xp-154" style="edgeStyle=none;rounded=0;orthogonalLoop=1;jettySize=auto;html=1;exitX=0.5;exitY=0;exitDx=0;exitDy=0;entryX=0;entryY=1;entryDx=0;entryDy=0;strokeColor=default;align=center;verticalAlign=middle;fontFamily=Helvetica;fontSize=11;fontColor=default;labelBackgroundColor=default;endArrow=none;" edge="1" parent="1" source="Z0cSFoAsNbvXdKRLB-xp-155" target="Z0cSFoAsNbvXdKRLB-xp-160">
          <mxGeometry relative="1" as="geometry" />
        </mxCell>
        <mxCell id="Z0cSFoAsNbvXdKRLB-xp-155" value="8. jautajums" style="ellipse;whiteSpace=wrap;html=1;fontFamily=Helvetica;fontSize=11;fontColor=default;labelBackgroundColor=default;" vertex="1" parent="1">
          <mxGeometry x="692.5" y="490" width="90" height="50" as="geometry" />
        </mxCell>
        <mxCell id="Z0cSFoAsNbvXdKRLB-xp-156" value="5. atb" style="ellipse;whiteSpace=wrap;html=1;fontFamily=Helvetica;fontSize=11;fontColor=default;labelBackgroundColor=default;" vertex="1" parent="1">
          <mxGeometry x="682.5" y="405" width="60" height="30" as="geometry" />
        </mxCell>
        <mxCell id="Z0cSFoAsNbvXdKRLB-xp-157" style="edgeStyle=none;rounded=0;orthogonalLoop=1;jettySize=auto;html=1;exitX=0.5;exitY=1;exitDx=0;exitDy=0;strokeColor=default;align=center;verticalAlign=middle;fontFamily=Helvetica;fontSize=11;fontColor=default;labelBackgroundColor=default;endArrow=none;" edge="1" parent="1" source="Z0cSFoAsNbvXdKRLB-xp-158" target="Z0cSFoAsNbvXdKRLB-xp-155">
          <mxGeometry relative="1" as="geometry" />
        </mxCell>
        <mxCell id="Z0cSFoAsNbvXdKRLB-xp-158" value="5. atb" style="ellipse;whiteSpace=wrap;html=1;fontFamily=Helvetica;fontSize=11;fontColor=default;labelBackgroundColor=default;" vertex="1" parent="1">
          <mxGeometry x="632.5" y="450" width="60" height="35" as="geometry" />
        </mxCell>
        <mxCell id="Z0cSFoAsNbvXdKRLB-xp-159" style="edgeStyle=none;rounded=0;orthogonalLoop=1;jettySize=auto;html=1;entryX=0.333;entryY=0.1;entryDx=0;entryDy=0;entryPerimeter=0;strokeColor=default;align=center;verticalAlign=middle;fontFamily=Helvetica;fontSize=11;fontColor=default;labelBackgroundColor=default;endArrow=none;" edge="1" parent="1" source="Z0cSFoAsNbvXdKRLB-xp-156" target="Z0cSFoAsNbvXdKRLB-xp-155">
          <mxGeometry relative="1" as="geometry" />
        </mxCell>
        <mxCell id="Z0cSFoAsNbvXdKRLB-xp-160" value="5. atb" style="ellipse;whiteSpace=wrap;html=1;fontFamily=Helvetica;fontSize=11;fontColor=default;labelBackgroundColor=default;" vertex="1" parent="1">
          <mxGeometry x="752.5" y="415" width="60" height="35" as="geometry" />
        </mxCell>
        <mxCell id="Z0cSFoAsNbvXdKRLB-xp-161" value="5. atb" style="ellipse;whiteSpace=wrap;html=1;fontFamily=Helvetica;fontSize=11;fontColor=default;labelBackgroundColor=default;" vertex="1" parent="1">
          <mxGeometry x="627.5" y="525" width="60" height="35" as="geometry" />
        </mxCell>
        <mxCell id="Z0cSFoAsNbvXdKRLB-xp-162" style="edgeStyle=none;rounded=0;orthogonalLoop=1;jettySize=auto;html=1;exitX=1;exitY=0;exitDx=0;exitDy=0;entryX=0.002;entryY=0.631;entryDx=0;entryDy=0;entryPerimeter=0;strokeColor=default;align=center;verticalAlign=middle;fontFamily=Helvetica;fontSize=11;fontColor=default;labelBackgroundColor=default;endArrow=none;" edge="1" parent="1" source="Z0cSFoAsNbvXdKRLB-xp-161" target="Z0cSFoAsNbvXdKRLB-xp-155">
          <mxGeometry relative="1" as="geometry" />
        </mxCell>
        <mxCell id="Z0cSFoAsNbvXdKRLB-xp-164" style="edgeStyle=none;rounded=0;orthogonalLoop=1;jettySize=auto;html=1;exitX=0.5;exitY=0;exitDx=0;exitDy=0;entryX=0;entryY=1;entryDx=0;entryDy=0;strokeColor=default;align=center;verticalAlign=middle;fontFamily=Helvetica;fontSize=11;fontColor=default;labelBackgroundColor=default;endArrow=none;" edge="1" parent="1" source="Z0cSFoAsNbvXdKRLB-xp-165" target="Z0cSFoAsNbvXdKRLB-xp-170">
          <mxGeometry relative="1" as="geometry" />
        </mxCell>
        <mxCell id="Z0cSFoAsNbvXdKRLB-xp-165" value="9. jautajums" style="ellipse;whiteSpace=wrap;html=1;fontFamily=Helvetica;fontSize=11;fontColor=default;labelBackgroundColor=default;" vertex="1" parent="1">
          <mxGeometry x="710" y="655" width="90" height="50" as="geometry" />
        </mxCell>
        <mxCell id="Z0cSFoAsNbvXdKRLB-xp-166" value="5. atb" style="ellipse;whiteSpace=wrap;html=1;fontFamily=Helvetica;fontSize=11;fontColor=default;labelBackgroundColor=default;" vertex="1" parent="1">
          <mxGeometry x="770" y="730" width="60" height="30" as="geometry" />
        </mxCell>
        <mxCell id="Z0cSFoAsNbvXdKRLB-xp-167" style="edgeStyle=none;rounded=0;orthogonalLoop=1;jettySize=auto;html=1;exitX=0.5;exitY=1;exitDx=0;exitDy=0;strokeColor=default;align=center;verticalAlign=middle;fontFamily=Helvetica;fontSize=11;fontColor=default;labelBackgroundColor=default;endArrow=none;" edge="1" parent="1" source="Z0cSFoAsNbvXdKRLB-xp-168" target="Z0cSFoAsNbvXdKRLB-xp-165">
          <mxGeometry relative="1" as="geometry" />
        </mxCell>
        <mxCell id="Z0cSFoAsNbvXdKRLB-xp-168" value="5. atb" style="ellipse;whiteSpace=wrap;html=1;fontFamily=Helvetica;fontSize=11;fontColor=default;labelBackgroundColor=default;" vertex="1" parent="1">
          <mxGeometry x="700" y="740" width="60" height="35" as="geometry" />
        </mxCell>
        <mxCell id="Z0cSFoAsNbvXdKRLB-xp-169" style="edgeStyle=none;rounded=0;orthogonalLoop=1;jettySize=auto;html=1;strokeColor=default;align=center;verticalAlign=middle;fontFamily=Helvetica;fontSize=11;fontColor=default;labelBackgroundColor=default;endArrow=none;entryX=0.648;entryY=0.983;entryDx=0;entryDy=0;entryPerimeter=0;" edge="1" parent="1" source="Z0cSFoAsNbvXdKRLB-xp-166" target="Z0cSFoAsNbvXdKRLB-xp-165">
          <mxGeometry relative="1" as="geometry">
            <mxPoint x="780" y="710" as="targetPoint" />
          </mxGeometry>
        </mxCell>
        <mxCell id="Z0cSFoAsNbvXdKRLB-xp-170" value="5. atb" style="ellipse;whiteSpace=wrap;html=1;fontFamily=Helvetica;fontSize=11;fontColor=default;labelBackgroundColor=default;" vertex="1" parent="1">
          <mxGeometry x="770" y="580" width="60" height="35" as="geometry" />
        </mxCell>
        <mxCell id="Z0cSFoAsNbvXdKRLB-xp-171" value="5. atb" style="ellipse;whiteSpace=wrap;html=1;fontFamily=Helvetica;fontSize=11;fontColor=default;labelBackgroundColor=default;" vertex="1" parent="1">
          <mxGeometry x="615" y="705" width="60" height="35" as="geometry" />
        </mxCell>
        <mxCell id="Z0cSFoAsNbvXdKRLB-xp-172" style="edgeStyle=none;rounded=0;orthogonalLoop=1;jettySize=auto;html=1;exitX=1;exitY=0;exitDx=0;exitDy=0;entryX=0.002;entryY=0.631;entryDx=0;entryDy=0;entryPerimeter=0;strokeColor=default;align=center;verticalAlign=middle;fontFamily=Helvetica;fontSize=11;fontColor=default;labelBackgroundColor=default;endArrow=none;" edge="1" parent="1" source="Z0cSFoAsNbvXdKRLB-xp-171" target="Z0cSFoAsNbvXdKRLB-xp-165">
          <mxGeometry relative="1" as="geometry" />
        </mxCell>
        <mxCell id="Z0cSFoAsNbvXdKRLB-xp-173" style="edgeStyle=none;rounded=0;orthogonalLoop=1;jettySize=auto;html=1;exitX=0.5;exitY=1;exitDx=0;exitDy=0;entryX=0.324;entryY=0.067;entryDx=0;entryDy=0;entryPerimeter=0;strokeColor=default;align=center;verticalAlign=middle;fontFamily=Helvetica;fontSize=11;fontColor=default;labelBackgroundColor=default;endArrow=none;" edge="1" parent="1" source="Z0cSFoAsNbvXdKRLB-xp-155" target="Z0cSFoAsNbvXdKRLB-xp-165">
          <mxGeometry relative="1" as="geometry" />
        </mxCell>
        <mxCell id="Z0cSFoAsNbvXdKRLB-xp-174" style="edgeStyle=none;rounded=0;orthogonalLoop=1;jettySize=auto;html=1;exitX=0.5;exitY=0;exitDx=0;exitDy=0;entryX=0;entryY=1;entryDx=0;entryDy=0;strokeColor=default;align=center;verticalAlign=middle;fontFamily=Helvetica;fontSize=11;fontColor=default;labelBackgroundColor=default;endArrow=none;" edge="1" parent="1" source="Z0cSFoAsNbvXdKRLB-xp-175" target="Z0cSFoAsNbvXdKRLB-xp-180">
          <mxGeometry relative="1" as="geometry" />
        </mxCell>
        <mxCell id="Z0cSFoAsNbvXdKRLB-xp-185" style="edgeStyle=none;rounded=0;orthogonalLoop=1;jettySize=auto;html=1;exitX=0;exitY=0;exitDx=0;exitDy=0;strokeColor=default;align=center;verticalAlign=middle;fontFamily=Helvetica;fontSize=11;fontColor=default;labelBackgroundColor=default;endArrow=none;" edge="1" parent="1" source="Z0cSFoAsNbvXdKRLB-xp-175" target="Z0cSFoAsNbvXdKRLB-xp-184">
          <mxGeometry relative="1" as="geometry" />
        </mxCell>
        <mxCell id="Z0cSFoAsNbvXdKRLB-xp-175" value="10. jautajums" style="ellipse;whiteSpace=wrap;html=1;fontFamily=Helvetica;fontSize=11;fontColor=default;labelBackgroundColor=default;" vertex="1" parent="1">
          <mxGeometry x="460" y="645" width="90" height="50" as="geometry" />
        </mxCell>
        <mxCell id="Z0cSFoAsNbvXdKRLB-xp-176" value="5. atb" style="ellipse;whiteSpace=wrap;html=1;fontFamily=Helvetica;fontSize=11;fontColor=default;labelBackgroundColor=default;" vertex="1" parent="1">
          <mxGeometry x="475" y="742.5" width="60" height="30" as="geometry" />
        </mxCell>
        <mxCell id="Z0cSFoAsNbvXdKRLB-xp-177" style="edgeStyle=none;rounded=0;orthogonalLoop=1;jettySize=auto;html=1;exitX=0.5;exitY=1;exitDx=0;exitDy=0;strokeColor=default;align=center;verticalAlign=middle;fontFamily=Helvetica;fontSize=11;fontColor=default;labelBackgroundColor=default;endArrow=none;" edge="1" parent="1" source="Z0cSFoAsNbvXdKRLB-xp-178" target="Z0cSFoAsNbvXdKRLB-xp-175">
          <mxGeometry relative="1" as="geometry" />
        </mxCell>
        <mxCell id="Z0cSFoAsNbvXdKRLB-xp-178" value="5. atb" style="ellipse;whiteSpace=wrap;html=1;fontFamily=Helvetica;fontSize=11;fontColor=default;labelBackgroundColor=default;" vertex="1" parent="1">
          <mxGeometry x="535" y="695" width="60" height="35" as="geometry" />
        </mxCell>
        <mxCell id="Z0cSFoAsNbvXdKRLB-xp-179" style="edgeStyle=none;rounded=0;orthogonalLoop=1;jettySize=auto;html=1;entryX=0.379;entryY=0.969;entryDx=0;entryDy=0;entryPerimeter=0;strokeColor=default;align=center;verticalAlign=middle;fontFamily=Helvetica;fontSize=11;fontColor=default;labelBackgroundColor=default;endArrow=none;" edge="1" parent="1" source="Z0cSFoAsNbvXdKRLB-xp-176" target="Z0cSFoAsNbvXdKRLB-xp-175">
          <mxGeometry relative="1" as="geometry" />
        </mxCell>
        <mxCell id="Z0cSFoAsNbvXdKRLB-xp-180" value="5. atb" style="ellipse;whiteSpace=wrap;html=1;fontFamily=Helvetica;fontSize=11;fontColor=default;labelBackgroundColor=default;" vertex="1" parent="1">
          <mxGeometry x="535" y="590" width="60" height="35" as="geometry" />
        </mxCell>
        <mxCell id="Z0cSFoAsNbvXdKRLB-xp-181" value="5. atb" style="ellipse;whiteSpace=wrap;html=1;fontFamily=Helvetica;fontSize=11;fontColor=default;labelBackgroundColor=default;" vertex="1" parent="1">
          <mxGeometry x="395" y="720" width="60" height="35" as="geometry" />
        </mxCell>
        <mxCell id="Z0cSFoAsNbvXdKRLB-xp-182" style="edgeStyle=none;rounded=0;orthogonalLoop=1;jettySize=auto;html=1;exitX=1;exitY=0;exitDx=0;exitDy=0;entryX=0.002;entryY=0.631;entryDx=0;entryDy=0;entryPerimeter=0;strokeColor=default;align=center;verticalAlign=middle;fontFamily=Helvetica;fontSize=11;fontColor=default;labelBackgroundColor=default;endArrow=none;" edge="1" parent="1" source="Z0cSFoAsNbvXdKRLB-xp-181" target="Z0cSFoAsNbvXdKRLB-xp-175">
          <mxGeometry relative="1" as="geometry" />
        </mxCell>
        <mxCell id="Z0cSFoAsNbvXdKRLB-xp-183" style="edgeStyle=none;rounded=0;orthogonalLoop=1;jettySize=auto;html=1;exitX=1;exitY=0.5;exitDx=0;exitDy=0;entryX=0.074;entryY=0.217;entryDx=0;entryDy=0;entryPerimeter=0;strokeColor=default;align=center;verticalAlign=middle;fontFamily=Helvetica;fontSize=11;fontColor=default;labelBackgroundColor=default;endArrow=none;" edge="1" parent="1" source="Z0cSFoAsNbvXdKRLB-xp-175" target="Z0cSFoAsNbvXdKRLB-xp-165">
          <mxGeometry relative="1" as="geometry" />
        </mxCell>
        <mxCell id="Z0cSFoAsNbvXdKRLB-xp-189" style="edgeStyle=none;rounded=0;orthogonalLoop=1;jettySize=auto;html=1;exitX=0.5;exitY=0;exitDx=0;exitDy=0;entryX=1;entryY=1;entryDx=0;entryDy=0;strokeColor=default;align=center;verticalAlign=middle;fontFamily=Helvetica;fontSize=11;fontColor=default;labelBackgroundColor=default;endArrow=none;" edge="1" parent="1" source="Z0cSFoAsNbvXdKRLB-xp-184" target="Z0cSFoAsNbvXdKRLB-xp-187">
          <mxGeometry relative="1" as="geometry" />
        </mxCell>
        <mxCell id="Z0cSFoAsNbvXdKRLB-xp-184" value="Pabeigt testēšanu" style="ellipse;whiteSpace=wrap;html=1;fontFamily=Helvetica;fontSize=11;fontColor=default;labelBackgroundColor=default;" vertex="1" parent="1">
          <mxGeometry x="285" y="600" width="120" height="65" as="geometry" />
        </mxCell>
        <mxCell id="Z0cSFoAsNbvXdKRLB-xp-186" value="Apturēt&lt;br&gt;&lt;div&gt;&lt;span style=&quot;background-color: rgb(251, 251, 251); font-size: 12px;&quot;&gt;Python_test&lt;/span&gt;.exe&lt;/div&gt;" style="ellipse;whiteSpace=wrap;html=1;fontFamily=Helvetica;fontSize=11;fontColor=default;labelBackgroundColor=default;" vertex="1" parent="1">
          <mxGeometry x="140" y="630" width="105" height="55" as="geometry" />
        </mxCell>
        <mxCell id="Z0cSFoAsNbvXdKRLB-xp-187" value="Meģinat vēlreiz" style="ellipse;whiteSpace=wrap;html=1;fontFamily=Helvetica;fontSize=11;fontColor=default;labelBackgroundColor=default;" vertex="1" parent="1">
          <mxGeometry x="180" y="515" width="105" height="55" as="geometry" />
        </mxCell>
        <mxCell id="Z0cSFoAsNbvXdKRLB-xp-188" style="edgeStyle=none;rounded=0;orthogonalLoop=1;jettySize=auto;html=1;exitX=0;exitY=0.5;exitDx=0;exitDy=0;entryX=0.962;entryY=0.227;entryDx=0;entryDy=0;entryPerimeter=0;strokeColor=default;align=center;verticalAlign=middle;fontFamily=Helvetica;fontSize=11;fontColor=default;labelBackgroundColor=default;endArrow=none;" edge="1" parent="1" source="Z0cSFoAsNbvXdKRLB-xp-184" target="Z0cSFoAsNbvXdKRLB-xp-186">
          <mxGeometry relative="1" as="geometry" />
        </mxCell>
        <mxCell id="Z0cSFoAsNbvXdKRLB-xp-190" style="edgeStyle=none;rounded=0;orthogonalLoop=1;jettySize=auto;html=1;entryX=0.2;entryY=1;entryDx=0;entryDy=0;entryPerimeter=0;strokeColor=default;align=center;verticalAlign=middle;fontFamily=Helvetica;fontSize=11;fontColor=default;labelBackgroundColor=default;endArrow=none;" edge="1" parent="1" source="Z0cSFoAsNbvXdKRLB-xp-187" target="Z0cSFoAsNbvXdKRLB-xp-124">
          <mxGeometry relative="1" as="geometry" />
        </mxCell>
      </root>
    </mxGraphModel>
  </diagram>
</mxfile>
